<svg id="Layer_1" data-name="Layer 1" xmlns="http://www.w3.org/2000/svg" viewBox="0 0 48.27 48.19"><defs><style>.cls-1{fill:#ea6c56;fill-rule:evenodd;}</style></defs><title>brush</title><path class="cls-1" d="M659.27,377.49h0c5.57-5.57,10.93-11.36,16.71-16.7a3.13,3.13,0,0,1,.3-.2,1.61,1.61,0,0,1,.81-.16,1.47,1.47,0,0,1,.46.11,1.55,1.55,0,0,1,.41.25,1.51,1.51,0,0,1,.36.47l9.79,9.79.61-.62.09-.08.1-.08.33-.18a1.59,1.59,0,0,1,1.23.05,1.69,1.69,0,0,1,.31.21l.09.08,6.32,6.32.09.1a1.27,1.27,0,0,1,.2.31,1.5,1.5,0,0,1,0,1.34,1.27,1.27,0,0,1-.2.31l-.09.09-5.26,5.27c4.47,4.44,9,8.83,13.36,13.37a5.53,5.53,0,0,1,.58.7,6.49,6.49,0,0,1,.91,1.8,6.74,6.74,0,0,1,.29,2.64,6.9,6.9,0,0,1-.46,1.84,6.54,6.54,0,0,1-2.47,3,6.29,6.29,0,0,1-1.59.76,6.53,6.53,0,0,1-6-1,6.42,6.42,0,0,1-.63-.54c-4.46-4.41-8.88-8.87-13.31-13.31l-5.26,5.27a.39.39,0,0,1-.1.08,1.69,1.69,0,0,1-.31.21,1.57,1.57,0,0,1-1.34,0,1.69,1.69,0,0,1-.31-.21l-.09-.08-6.32-6.32-.09-.09a1.32,1.32,0,0,1-.2-.32,1.48,1.48,0,0,1,0-1.33,1.32,1.32,0,0,1,.2-.32l.09-.09.48-.48-10.13-10.12h0a1.84,1.84,0,0,1-.17-.22,1.4,1.4,0,0,1-.1-.16,2.3,2.3,0,0,1-.12-.34,1.37,1.37,0,0,1,0-.34,1.84,1.84,0,0,1,.07-.47.87.87,0,0,1,.07-.17l0,0,.06-.12a1.09,1.09,0,0,1,.13-.17l.06-.08Zm25.54,13.79c4.45,4.45,8.76,9,13.35,13.34l.2.18a3.62,3.62,0,0,0,1.35.66,3.55,3.55,0,0,0,1.34.06,3.29,3.29,0,0,0,1-.31,3.52,3.52,0,0,0,1.86-2.17,3.6,3.6,0,0,0,.14-1.08,3.51,3.51,0,0,0-.22-1.16,3.69,3.69,0,0,0-.81-1.25l-13.24-13.24Zm3.9-8.2,5.26-5.26-4.16-4.17L672.16,391.3l4.16,4.17,5.27-5.27C684,387.83,686.25,385.37,688.71,383.08Zm-11.78-18.94-1.17,1.16,9,9.05,1.16-1.16Zm-4.48,4.48,9,9,1.16-1.16-9-9.05Zm-3.31,3.31,9,9,1.16-1.16-9-9Zm-3.31,3.31,9,9.05,1.16-1.16-9-9.05Zm-3.32,3.32,9,9,1.16-1.16-9.05-9.05Z" transform="translate(-658.84 -360.42)"/></svg>