<svg id="ActualLogo" xmlns="http://www.w3.org/2000/svg" viewBox="0 0 236.23 77.25">
    <path id="ctual" d="M605.85 325a15.78 15.78 0 01-6.54 1.12c-8 0-12.9-5-12.9-12.69 0-8.32 5.79-13.32 13.49-13.32a14.67 14.67 0 016.16 1.12l-1 3.67a12 12 0 00-5-1c-5.12 0-8.82 3.2-8.82 9.28 0 5.54 3.25 9.12 8.78 9.12a12.71 12.71 0 005-1zM617.25 304.4h-7.2v-3.87h19.06v3.87h-7.28v21.39h-4.62V304.4zM638.52 300.53v14.73c0 4.95 2.08 7.24 5.16 7.24 3.33 0 5.33-2.29 5.33-7.24v-14.73h4.62v14.4c0 7.78-4 11.23-10.08 11.23-5.82 0-9.61-3.24-9.61-11.19v-14.44zM664.61 318.63l-2.16 7.16h-4.74l8.07-25.26h5.87l8.2 25.26h-5l-2.28-7.16zm7.25-3.5l-2-6.2c-.5-1.54-.92-3.24-1.29-4.7h-.09c-.37 1.46-.74 3.2-1.2 4.7l-2 6.2zM685.26 300.53h4.62v21.39h10.36v3.87h-15z" transform="translate(-501.84 -249.42)"/>
    <path id="A" d="M584 326.66h-8.49l-4.21-11.86H553l-4 11.86h-8.45l17.48-46.61h8.7zm-14.74-18.14l-6.45-18.61a19.36 19.36 0 01-.62-2.91h-.13a17.38 17.38 0 01-.66 2.91l-6.4 18.61z" transform="translate(-501.84 -249.42)"/>
    <path id="Roof" d="M101.1 35.63l-.62-.54L61.64 0l-.08.08L0 51.73l4.87 5.83 9.99-8.39v24.41h4.99v-28.6l40.98-34.42-.05.05 35.55 30.91.01-.01.51.44 2.7.04.21-.04h136.47v-6.32H101.1z"/>
</svg>